<svg width="200" height="208" viewBox="0 0 200 208" fill="none" xmlns="http://www.w3.org/2000/svg">
<circle cx="100" cy="100" r="100" fill="#BAE6FD"/>
<circle cx="100" cy="100" r="94" fill="white"/>
<g filter="url(#filter0_dd_6_23)">
<path d="M172.394 66.006C171.293 65.9205 170.331 66.744 170.245 67.8453C170.16 68.9465 170.983 69.9086 172.085 69.994L172.394 66.006ZM62.9041 156.006L41.3003 147.844L45.034 170.634L62.9041 156.006ZM172.085 69.994C179.537 70.5722 184.256 76.2203 184.92 82.5593C185.573 88.7956 182.265 95.7913 173.107 98.8665L174.381 102.658C185.285 98.9966 189.75 90.2726 188.898 82.1427C188.058 74.1155 181.994 66.7509 172.394 66.006L172.085 69.994ZM173.107 98.8665C170.82 99.6345 167.189 100.263 162.404 100.774C157.657 101.28 151.911 101.657 145.468 101.965C132.564 102.582 117.045 102.917 101.325 103.48C85.6463 104.041 69.813 104.829 56.4395 106.354C49.7524 107.117 43.6431 108.068 38.4544 109.278C33.296 110.481 28.9109 111.97 25.76 113.871L27.8268 117.296C30.4435 115.717 34.3494 114.343 39.3628 113.174C44.3459 112.012 50.2892 111.082 56.8928 110.329C70.1009 108.822 85.8018 108.038 101.469 107.477C117.095 106.917 132.734 106.578 145.659 105.96C152.131 105.651 157.967 105.27 162.828 104.751C167.651 104.237 171.652 103.575 174.381 102.658L173.107 98.8665ZM25.76 113.871C13.6985 121.151 9.8597 130.302 11.2791 138.818C12.6578 147.09 18.9201 154.189 25.8754 157.783L27.7114 154.229C21.6268 151.085 16.3538 144.935 15.2247 138.161C14.1365 131.631 16.8176 123.94 27.8268 117.296L25.76 113.871ZM25.8754 157.783C31.5678 160.724 38.8218 161.243 45.2424 160.913L45.0374 156.919C38.842 157.237 32.4521 156.678 27.7114 154.229L25.8754 157.783Z" fill="#EA33B7"/>
<path d="M18.8594 23H30.1562V84.1719L29.0781 95H18.8594V23ZM63.25 69.1719V70.1562C63.25 73.9062 62.8281 77.3594 61.9844 80.5156C61.1719 83.6406 59.9219 86.3594 58.2344 88.6719C56.5781 90.9844 54.5156 92.7812 52.0469 94.0625C49.6094 95.3125 46.7812 95.9375 43.5625 95.9375C40.4062 95.9375 37.6562 95.3438 35.3125 94.1562C32.9688 92.9688 31 91.2812 29.4062 89.0938C27.8438 86.9062 26.5781 84.2969 25.6094 81.2656C24.6406 78.2344 23.9531 74.8906 23.5469 71.2344V68.0938C23.9531 64.4062 24.6406 61.0625 25.6094 58.0625C26.5781 55.0312 27.8438 52.4219 29.4062 50.2344C31 48.0156 32.9531 46.3125 35.2656 45.125C37.6094 43.9375 40.3438 43.3438 43.4688 43.3438C46.7188 43.3438 49.5781 43.9688 52.0469 45.2188C54.5469 46.4688 56.625 48.25 58.2812 50.5625C59.9375 52.8438 61.1719 55.5625 61.9844 58.7188C62.8281 61.875 63.25 65.3594 63.25 69.1719ZM51.9531 70.1562V69.1719C51.9531 66.8906 51.7656 64.75 51.3906 62.75C51.0156 60.7188 50.3906 58.9375 49.5156 57.4062C48.6719 55.875 47.5156 54.6719 46.0469 53.7969C44.6094 52.8906 42.8125 52.4375 40.6562 52.4375C38.6562 52.4375 36.9375 52.7812 35.5 53.4688C34.0625 54.1562 32.8594 55.0938 31.8906 56.2812C30.9219 57.4688 30.1562 58.8438 29.5938 60.4062C29.0625 61.9688 28.7031 63.6562 28.5156 65.4688V73.9531C28.7969 76.2969 29.3906 78.4531 30.2969 80.4219C31.2344 82.3594 32.5469 83.9219 34.2344 85.1094C35.9219 86.2656 38.0938 86.8438 40.75 86.8438C42.8438 86.8438 44.6094 86.4219 46.0469 85.5781C47.4844 84.7344 48.625 83.5625 49.4688 82.0625C50.3438 80.5312 50.9688 78.75 51.3438 76.7188C51.75 74.6875 51.9531 72.5 51.9531 70.1562ZM124.609 23H135.906V84.1719L134.828 95H124.609V23ZM169 69.1719V70.1562C169 73.9062 168.578 77.3594 167.734 80.5156C166.922 83.6406 165.672 86.3594 163.984 88.6719C162.328 90.9844 160.266 92.7812 157.797 94.0625C155.359 95.3125 152.531 95.9375 149.312 95.9375C146.156 95.9375 143.406 95.3438 141.062 94.1562C138.719 92.9688 136.75 91.2812 135.156 89.0938C133.594 86.9062 132.328 84.2969 131.359 81.2656C130.391 78.2344 129.703 74.8906 129.297 71.2344V68.0938C129.703 64.4062 130.391 61.0625 131.359 58.0625C132.328 55.0312 133.594 52.4219 135.156 50.2344C136.75 48.0156 138.703 46.3125 141.016 45.125C143.359 43.9375 146.094 43.3438 149.219 43.3438C152.469 43.3438 155.328 43.9688 157.797 45.2188C160.297 46.4688 162.375 48.25 164.031 50.5625C165.688 52.8438 166.922 55.5625 167.734 58.7188C168.578 61.875 169 65.3594 169 69.1719ZM157.703 70.1562V69.1719C157.703 66.8906 157.516 64.75 157.141 62.75C156.766 60.7188 156.141 58.9375 155.266 57.4062C154.422 55.875 153.266 54.6719 151.797 53.7969C150.359 52.8906 148.562 52.4375 146.406 52.4375C144.406 52.4375 142.688 52.7812 141.25 53.4688C139.812 54.1562 138.609 55.0938 137.641 56.2812C136.672 57.4688 135.906 58.8438 135.344 60.4062C134.812 61.9688 134.453 63.6562 134.266 65.4688V73.9531C134.547 76.2969 135.141 78.4531 136.047 80.4219C136.984 82.3594 138.297 83.9219 139.984 85.1094C141.672 86.2656 143.844 86.8438 146.5 86.8438C148.594 86.8438 150.359 86.4219 151.797 85.5781C153.234 84.7344 154.375 83.5625 155.219 82.0625C156.094 80.5312 156.719 78.75 157.094 76.7188C157.5 74.6875 157.703 72.5 157.703 70.1562Z" fill="#9333EA"/>
<path d="M101.406 84.8281V60.6406C101.406 58.8281 101.078 57.2656 100.422 55.9531C99.7656 54.6406 98.7656 53.625 97.4219 52.9062C96.1094 52.1875 94.4531 51.8281 92.4531 51.8281C90.6094 51.8281 89.0156 52.1406 87.6719 52.7656C86.3281 53.3906 85.2812 54.2344 84.5312 55.2969C83.7812 56.3594 83.4062 57.5625 83.4062 58.9062H72.1562C72.1562 56.9062 72.6406 54.9688 73.6094 53.0938C74.5781 51.2188 75.9844 49.5469 77.8281 48.0781C79.6719 46.6094 81.875 45.4531 84.4375 44.6094C87 43.7656 89.875 43.3438 93.0625 43.3438C96.875 43.3438 100.25 43.9844 103.188 45.2656C106.156 46.5469 108.484 48.4844 110.172 51.0781C111.891 53.6406 112.75 56.8594 112.75 60.7344V83.2812C112.75 85.5938 112.906 87.6719 113.219 89.5156C113.562 91.3281 114.047 92.9062 114.672 94.25V95H103.094C102.562 93.7812 102.141 92.2344 101.828 90.3594C101.547 88.4531 101.406 86.6094 101.406 84.8281ZM103.047 64.1562L103.141 71.1406H95.0312C92.9375 71.1406 91.0938 71.3438 89.5 71.75C87.9062 72.125 86.5781 72.6875 85.5156 73.4375C84.4531 74.1875 83.6562 75.0938 83.125 76.1562C82.5938 77.2188 82.3281 78.4219 82.3281 79.7656C82.3281 81.1094 82.6406 82.3438 83.2656 83.4688C83.8906 84.5625 84.7969 85.4219 85.9844 86.0469C87.2031 86.6719 88.6719 86.9844 90.3906 86.9844C92.7031 86.9844 94.7188 86.5156 96.4375 85.5781C98.1875 84.6094 99.5625 83.4375 100.562 82.0625C101.562 80.6562 102.094 79.3281 102.156 78.0781L105.812 83.0938C105.438 84.375 104.797 85.75 103.891 87.2188C102.984 88.6875 101.797 90.0938 100.328 91.4375C98.8906 92.75 97.1562 93.8281 95.125 94.6719C93.125 95.5156 90.8125 95.9375 88.1875 95.9375C84.875 95.9375 81.9219 95.2812 79.3281 93.9688C76.7344 92.625 74.7031 90.8281 73.2344 88.5781C71.7656 86.2969 71.0312 83.7188 71.0312 80.8438C71.0312 78.1562 71.5312 75.7812 72.5312 73.7188C73.5625 71.625 75.0625 69.875 77.0312 68.4688C79.0312 67.0625 81.4688 66 84.3438 65.2812C87.2188 64.5312 90.5 64.1562 94.1875 64.1562H103.047Z" fill="#14B8A6"/>
<path d="M90.4062 173.828V149.641C90.4062 147.828 90.0781 146.266 89.4219 144.953C88.7656 143.641 87.7656 142.625 86.4219 141.906C85.1094 141.188 83.4531 140.828 81.4531 140.828C79.6094 140.828 78.0156 141.141 76.6719 141.766C75.3281 142.391 74.2812 143.234 73.5312 144.297C72.7812 145.359 72.4062 146.562 72.4062 147.906H61.1562C61.1562 145.906 61.6406 143.969 62.6094 142.094C63.5781 140.219 64.9844 138.547 66.8281 137.078C68.6719 135.609 70.875 134.453 73.4375 133.609C76 132.766 78.875 132.344 82.0625 132.344C85.875 132.344 89.25 132.984 92.1875 134.266C95.1562 135.547 97.4844 137.484 99.1719 140.078C100.891 142.641 101.75 145.859 101.75 149.734V172.281C101.75 174.594 101.906 176.672 102.219 178.516C102.562 180.328 103.047 181.906 103.672 183.25V184H92.0938C91.5625 182.781 91.1406 181.234 90.8281 179.359C90.5469 177.453 90.4062 175.609 90.4062 173.828ZM92.0469 153.156L92.1406 160.141H84.0312C81.9375 160.141 80.0938 160.344 78.5 160.75C76.9062 161.125 75.5781 161.688 74.5156 162.438C73.4531 163.188 72.6562 164.094 72.125 165.156C71.5938 166.219 71.3281 167.422 71.3281 168.766C71.3281 170.109 71.6406 171.344 72.2656 172.469C72.8906 173.562 73.7969 174.422 74.9844 175.047C76.2031 175.672 77.6719 175.984 79.3906 175.984C81.7031 175.984 83.7188 175.516 85.4375 174.578C87.1875 173.609 88.5625 172.438 89.5625 171.062C90.5625 169.656 91.0938 168.328 91.1562 167.078L94.8125 172.094C94.4375 173.375 93.7969 174.75 92.8906 176.219C91.9844 177.688 90.7969 179.094 89.3281 180.438C87.8906 181.75 86.1562 182.828 84.125 183.672C82.125 184.516 79.8125 184.938 77.1875 184.938C73.875 184.938 70.9219 184.281 68.3281 182.969C65.7344 181.625 63.7031 179.828 62.2344 177.578C60.7656 175.297 60.0312 172.719 60.0312 169.844C60.0312 167.156 60.5312 164.781 61.5312 162.719C62.5625 160.625 64.0625 158.875 66.0312 157.469C68.0312 156.062 70.4688 155 73.3438 154.281C76.2188 153.531 79.5 153.156 83.1875 153.156H92.0469Z" fill="#14B8A6"/>
<path d="M113.609 112H124.906V173.172L123.828 184H113.609V112ZM158 158.172V159.156C158 162.906 157.578 166.359 156.734 169.516C155.922 172.641 154.672 175.359 152.984 177.672C151.328 179.984 149.266 181.781 146.797 183.062C144.359 184.312 141.531 184.938 138.312 184.938C135.156 184.938 132.406 184.344 130.062 183.156C127.719 181.969 125.75 180.281 124.156 178.094C122.594 175.906 121.328 173.297 120.359 170.266C119.391 167.234 118.703 163.891 118.297 160.234V157.094C118.703 153.406 119.391 150.062 120.359 147.062C121.328 144.031 122.594 141.422 124.156 139.234C125.75 137.016 127.703 135.312 130.016 134.125C132.359 132.938 135.094 132.344 138.219 132.344C141.469 132.344 144.328 132.969 146.797 134.219C149.297 135.469 151.375 137.25 153.031 139.562C154.688 141.844 155.922 144.562 156.734 147.719C157.578 150.875 158 154.359 158 158.172ZM146.703 159.156V158.172C146.703 155.891 146.516 153.75 146.141 151.75C145.766 149.719 145.141 147.938 144.266 146.406C143.422 144.875 142.266 143.672 140.797 142.797C139.359 141.891 137.562 141.438 135.406 141.438C133.406 141.438 131.688 141.781 130.25 142.469C128.812 143.156 127.609 144.094 126.641 145.281C125.672 146.469 124.906 147.844 124.344 149.406C123.812 150.969 123.453 152.656 123.266 154.469V162.953C123.547 165.297 124.141 167.453 125.047 169.422C125.984 171.359 127.297 172.922 128.984 174.109C130.672 175.266 132.844 175.844 135.5 175.844C137.594 175.844 139.359 175.422 140.797 174.578C142.234 173.734 143.375 172.562 144.219 171.062C145.094 169.531 145.719 167.75 146.094 165.719C146.5 163.688 146.703 161.5 146.703 159.156Z" fill="#9333EA"/>
</g>
<defs>
<filter id="filter0_dd_6_23" x="0.998661" y="15" width="198.001" height="181.938" filterUnits="userSpaceOnUse" color-interpolation-filters="sRGB">
<feFlood flood-opacity="0" result="BackgroundImageFix"/>
<feColorMatrix in="SourceAlpha" type="matrix" values="0 0 0 0 0 0 0 0 0 0 0 0 0 0 0 0 0 0 127 0" result="hardAlpha"/>
<feOffset dy="1"/>
<feGaussianBlur stdDeviation="1"/>
<feComposite in2="hardAlpha" operator="out"/>
<feColorMatrix type="matrix" values="0 0 0 0 0.0117647 0 0 0 0 0.411765 0 0 0 0 0.631373 0 0 0 0.5 0"/>
<feBlend mode="normal" in2="BackgroundImageFix" result="effect1_dropShadow_6_23"/>
<feColorMatrix in="SourceAlpha" type="matrix" values="0 0 0 0 0 0 0 0 0 0 0 0 0 0 0 0 0 0 127 0" result="hardAlpha"/>
<feOffset dy="2"/>
<feGaussianBlur stdDeviation="5"/>
<feComposite in2="hardAlpha" operator="out"/>
<feColorMatrix type="matrix" values="0 0 0 0 0.0117647 0 0 0 0 0.411765 0 0 0 0 0.631373 0 0 0 0.4 0"/>
<feBlend mode="normal" in2="effect1_dropShadow_6_23" result="effect2_dropShadow_6_23"/>
<feBlend mode="normal" in="SourceGraphic" in2="effect2_dropShadow_6_23" result="shape"/>
</filter>
</defs>
</svg>
